<svg xmlns="http://www.w3.org/2000/svg" viewBox="0 0 862 778" width="886" height="800">
	<style>
		tspan { white-space:pre }
		.shp0 { fill: #ffffff }
	</style>
	<g id="layer1">
		<path id="Color Fill 1" class="shp0" d="M429.53 2.01C408.79 2.37 389.9 16.11 380.81 34.34C368.83 57.36 370.9 87.23 386.6 108.08C308.74 142.11 249.84 217.95 239.51 302.62C234.2 344.89 242.25 389.57 265.6 425.34C275.39 440.41 287.68 453.81 301.9 464.75C298.88 472.88 293.65 479.95 290.18 487.9C274.77 520.28 265.95 556.1 266.09 592.11C266.79 601.2 266.49 611.03 271.31 619.09C276.77 626.96 286.97 629.02 295.7 631.34C304.11 633.49 312.85 633.48 321.34 634.95C323.61 635.12 324.96 637.76 323.42 639.55C318.75 645.32 312.64 649.89 306.49 654.03C286.02 666.68 261.11 668.09 237.62 667.68C196.02 666.57 154.58 659.98 112.9 662.12C88.11 664.7 63.95 671.34 39.88 677.69C26.54 681.34 13.3 685.15 0.07 689.22C29.84 697.58 59.62 705.91 89.39 714.28C67.05 733.32 44.71 752.34 22.37 771.38C50.62 767.47 79.08 763.7 107.7 763.77C120.48 763.65 132.72 767.84 145.27 769.65C191.55 777.75 239.43 781.82 285.93 773.17C313.92 768.14 340.58 757.04 364.84 742.36C382.09 732.2 399.26 720.26 419.61 717.83C439.31 714.98 459.57 720.03 476.48 730.16C496.38 741.72 515.81 754.3 537.51 762.32C581 779.06 628.87 780.35 674.84 775.61C697.88 773.33 720.72 769.08 743.42 764.52C762.28 762.54 781.3 764.75 800.12 766.43C813.33 767.8 826.47 769.46 839.62 771.38C817.28 752.34 794.93 733.32 772.6 714.28C802.37 705.91 832.14 697.58 861.91 689.22C828.98 679.35 795.86 669.71 761.96 663.77C743.22 660.48 724.03 661.8 705.1 662.5C670.72 664.05 636.39 669.31 601.91 667.23C581.77 665.92 560.92 660.58 545.73 646.68C543.02 643.89 538.78 641.66 537.88 637.59C538.23 634.52 542.31 634.72 544.6 634.31C558.17 633.15 572.27 631.44 584.37 624.95C591.28 621.24 594.07 613.28 594.79 605.88C597.67 583.1 594.48 559.92 589.43 537.69C583.82 513.79 574.37 490.81 562.1 469.6C561.6 467.68 558.85 464.92 561.44 463.68C593.48 438.75 614.59 400.86 621.26 360.85C630.02 309.26 617.23 255.37 590.77 210.85C564.02 165.89 523.5 129.13 475.38 108.08C495.12 82.05 493.07 41.89 469.87 18.7C459.42 7.98 444.63 1.5 429.52 2.02L429.53 2.01Z" />
	</g>
</svg>