<svg xmlns="http://www.w3.org/2000/svg" viewBox="0 0 803 800" width="803" height="800">
	<style>
		tspan { white-space:pre }
		.shp0 { fill: #ffffff } 
	</style>
	<g id="layer1">
		<path id="Color Fill 1" class="shp0" d="M174.85 764.47C133.21 754.62 149.92 716.19 165.41 692.41C169.86 659.04 147.7 631.07 137.28 601.65C94.62 602.34 121.95 563.1 148.17 560.45C139.39 534.05 102.37 514.16 83.73 489.29C46.34 452.35 9.4 403.84 21.1 347.71C17 296.87 47.5 251.6 92.62 230.08C152.04 192.96 231.52 207.35 282.13 252.77C305.78 269.77 318.33 340.06 354.73 298.15C374.42 262.45 352.09 221.89 341.48 186.7C327.8 144.01 303.7 97.24 320.97 52.19C323.48 47.24 326.95 43.05 330.41 38.76C349.1 21.79 375.18 13.54 401.02 13.89L401.64 13.89C428.1 13.54 454.19 21.79 472.88 38.76C476.67 42.81 479.46 47.48 482.31 52.19C499.58 97.24 475.48 144.01 461.8 186.7C451.19 221.89 428.86 262.45 448.55 298.15C484.96 340.06 497.51 269.77 521.16 252.77C571.77 207.35 651.24 192.96 710.66 230.08C755.78 251.6 786.28 296.87 782.18 347.71C793.88 403.84 756.95 452.35 719.56 489.29C700.92 514.16 663.89 534.05 655.12 560.45C681.34 563.1 708.67 602.34 666.01 601.65C655.59 631.06 633.42 659.04 637.87 692.41C653.37 716.19 669.56 750.51 628.43 764.47C546.92 780.82 475.85 785.87 401.64 785.71C325.18 788.25 242.08 777.36 174.85 764.47L174.85 764.47Z" />
	</g>
</svg>