<svg xmlns="http://www.w3.org/2000/svg" viewBox="0 0 845 779" width="868" height="800">
	<style>
		tspan { white-space:pre }
		.shp0 { fill: #000000 } 
	</style>
	<g id="layer1">
		<path id="path2995" class="shp0" d="M217.6 117.99C217.6 117.99 153.03 251.15 116.2 315.25C82.06 374.68 41.3 418.86 11.11 483.02C-3.85 514.84 -3.45 564.45 20.33 588.11C41.9 609.56 84.99 577.19 110.67 601.01C124.06 613.44 128.44 622.38 146.34 626.01C215.8 636.31 190.04 594.66 210.22 556.77C243.92 496.67 324.53 435.09 324.53 435.09C324.53 435.09 450.16 384.33 444.36 424.03C428.07 535.55 287.66 683.98 287.66 683.98L260 778L844.4 770.63C844.4 770.63 846.78 620.45 831.5 547.55C813.75 462.87 788.76 376.46 741.16 304.2C701.47 243.94 646.97 190.89 584.46 154.87C535.09 126.42 420.38 106.94 420.38 106.94L333.73 0.01C333.73 0.01 341.99 59.93 322.67 77.44C312.18 86.93 293.51 84.23 280.26 79.28C249.32 67.71 208.36 11.06 208.36 11.06L217.6 117.99Z" />
	</g>
</svg>