<svg xmlns="http://www.w3.org/2000/svg" viewBox="0 0 772 779" width="793" height="800">
	<style>
		tspan { white-space:pre }
		.shp0 { fill: #000000 } 
	</style>
	<g id="layer1">
		<path id="path2999" class="shp0" d="M612.5 758.22C652.69 744.58 636.87 711.04 621.72 687.8C617.38 655.19 639.04 627.85 649.22 599.11C690.91 599.79 664.2 561.43 638.57 558.84C687.42 466.76 718.36 391.05 736.13 273.61C746.06 269.77 755.62 261.65 762.56 250.02C776.38 226.89 774.43 199.07 758.13 187.76C741.83 176.45 717.49 185.92 703.67 209.05C692.9 227.08 691.69 248.01 699.42 261.73C712.54 279.44 655.76 387.41 616.94 414.28C602.25 425.63 587.79 412.68 583.94 406.3C560.34 365.42 571 318.61 584.65 195.92C598.17 189.89 609.97 173.8 614.28 153.35C620.26 124.92 609.34 98.74 589.98 94.99C570.61 91.25 550.01 111.26 544.03 139.69C539.67 160.42 544.36 179.94 554.68 190.42C532.9 328.15 514.32 364.01 488.69 383.06C473.78 394.79 449.98 399.45 441.86 380.39C427.75 339.19 407.16 230.4 404.97 102.61C416.69 93.37 424.66 75.65 424.66 55.25C424.66 25.33 407.58 0.97 386.07 0.97C364.55 0.97 347.47 25.33 347.47 55.25C347.47 75.65 355.44 93.37 367.16 102.61C364.98 230.4 344.38 339.19 330.27 380.39C315.94 400.92 300.26 395.4 283.44 383.06C257.81 364.01 239.23 328.15 217.45 190.42C227.77 179.94 232.46 160.42 228.1 139.69C222.12 111.26 201.52 91.25 182.16 94.99C162.79 98.73 151.87 124.91 157.85 153.35C162.16 173.8 173.96 189.89 187.48 195.92C201.13 318.61 213.57 351.76 188.19 406.3C184.34 412.68 169.88 425.63 155.19 414.28C126.28 392.94 59.59 279.44 72.71 261.73C80.44 248.01 79.23 227.07 68.46 209.05C54.63 185.92 30.3 176.45 14 187.76C-2.3 199.07 -4.26 226.89 9.57 250.02C16.51 261.65 26.07 269.77 36 273.61C53.76 391.05 84.71 466.76 133.56 558.84C107.93 561.43 81.23 599.79 122.91 599.11C133.09 627.85 154.75 655.19 150.41 687.8C135.26 711.04 119.44 744.57 159.63 758.22C239.28 774.19 308.84 779.13 386.07 778.97C463.3 779.13 532.85 774.19 612.51 758.22L612.5 758.22Z" />
	</g>
</svg>