<svg xmlns="http://www.w3.org/2000/svg" viewBox="0 0 772 779" width="793" height="800">
	<style>
		tspan { white-space:pre }
		.shp0 { fill: #ffffff } 
	</style>
	<g id="layer1">
		<path id="path2999" class="shp0" d="M613.5 757.22C653.69 743.58 637.87 710.04 622.72 686.8C618.38 654.19 640.04 626.85 650.22 598.11C691.91 598.79 665.2 560.43 639.57 557.84C688.42 465.76 719.36 390.05 737.13 272.61C747.06 268.77 756.62 260.65 763.56 249.02C777.38 225.89 775.43 198.07 759.13 186.76C742.83 175.45 718.49 184.92 704.67 208.05C693.9 226.08 692.69 247.01 700.42 260.73C713.54 278.44 656.76 386.41 617.94 413.28C603.25 424.63 588.79 411.68 584.94 405.3C561.34 364.42 572 317.61 585.65 194.92C599.17 188.89 610.97 172.8 615.28 152.35C621.26 123.92 610.34 97.74 590.98 93.99C571.61 90.25 551.01 110.26 545.03 138.69C540.67 159.42 545.36 178.94 555.68 189.42C533.9 327.15 515.32 363.01 489.69 382.06C474.78 393.79 450.98 398.45 442.86 379.39C428.75 338.19 408.16 229.4 405.97 101.61C417.69 92.37 425.66 74.65 425.66 54.25C425.66 24.33 408.58 -0.03 387.07 -0.03C365.55 -0.03 348.47 24.33 348.47 54.25C348.47 74.65 356.44 92.37 368.16 101.61C365.98 229.4 345.38 338.19 331.27 379.39C316.94 399.92 301.26 394.4 284.44 382.06C258.81 363.01 240.23 327.15 218.45 189.42C228.77 178.94 233.46 159.42 229.1 138.69C223.12 110.26 202.52 90.25 183.16 93.99C163.79 97.73 152.87 123.91 158.85 152.35C163.16 172.8 174.96 188.89 188.48 194.92C202.13 317.61 214.57 350.76 189.19 405.3C185.34 411.68 170.88 424.63 156.19 413.28C127.28 391.94 60.59 278.44 73.71 260.73C81.44 247.01 80.23 226.07 69.46 208.05C55.63 184.92 31.3 175.45 15 186.76C-1.3 198.07 -3.26 225.89 10.57 249.02C17.51 260.65 27.07 268.77 37 272.61C54.76 390.05 85.71 465.76 134.56 557.84C108.93 560.43 82.23 598.79 123.91 598.11C134.09 626.85 155.75 654.19 151.41 686.8C136.26 710.04 120.44 743.57 160.63 757.22C240.28 773.19 309.84 778.13 387.07 777.97C464.3 778.13 533.85 773.19 613.51 757.22L613.5 757.22Z" />
	</g>
</svg>