<svg xmlns="http://www.w3.org/2000/svg" viewBox="0 0 641 779" width="658" height="800">
	<style>
		tspan { white-space:pre }
		.shp0 { fill: #000000 } 
	</style>
	<g id="layer1">
		<path id="path2991" class="shp0" d="M0.8 778.02L0.8 706.96L40.52 706.96C40.52 706.96 23.06 626.24 40.52 590.31C54.1 562.36 102.23 554.08 115.81 526.13C166.7 421.4 115.81 186.06 115.81 186.06L28.52 111.64L28.52 6.72L143.53 6.72L159.9 58.25L242.83 58.25L246.76 0.02L320.41 0.02L394.07 0.02L397.99 58.25L480.92 58.25L497.29 6.72L612.3 6.72L612.3 111.64L525.01 186.06C525.01 186.06 474.12 421.4 525.01 526.13C538.59 554.08 586.72 562.36 600.3 590.31C617.76 626.23 600.3 706.96 600.3 706.96L640.02 706.96L640.02 778.02L320.41 778.02L0.8 778.02Z" />
	</g>
</svg>